PathFileType	4	(X/Y/Z)	C:\Users\u0145647\OneDrive - KU Leuven\KU Leuven\c3d2osim\CP4\T0\Data\Processed\ViconC3D_CP4_2\CP4_T0_06_gapFilled.trc
DataRate	CameraRate	NumFrames	NumMarkers	Units	OrigDataRate	OrigDataStartFrame	OrigNumFrames
100.000000	100.000000	9	47	mm	100.000000	284	756
Frame#	Time	C7			T10			CLAV			STRN			LSHO			RSHO			RBAK			LASI			RASI			LPSI			RPSI			LLAT			RLAT			LF1			LF2			LF3			LTHI			LKNE			LMEK			RF1			RF2			RF3			RTHI			RKNE			RMEK			LT1			LT2			LT3			LTIB			LANK			LMM			RT1			RT2			RT3			RTIB			RANK			RMM			LHEE			LSTL			LLCA			LTOE			LCM5			RHEE			RSTL			RLCA			RTOE			RCM5
		X1	Y1	Z1	X2	Y2	Z2	X3	Y3	Z3	X4	Y4	Z4	X5	Y5	Z5	X6	Y6	Z6	X7	Y7	Z7	X8	Y8	Z8	X9	Y9	Z9	X10	Y10	Z10	X11	Y11	Z11	X12	Y12	Z12	X13	Y13	Z13	X14	Y14	Z14	X15	Y15	Z15	X16	Y16	Z16	X17	Y17	Z17	X18	Y18	Z18	X19	Y19	Z19	X20	Y20	Z20	X21	Y21	Z21	X22	Y22	Z22	X23	Y23	Z23	X24	Y24	Z24	X25	Y25	Z25	X26	Y26	Z26	X27	Y27	Z27	X28	Y28	Z28	X29	Y29	Z29	X30	Y30	Z30	X31	Y31	Z31	X32	Y32	Z32	X33	Y33	Z33	X34	Y34	Z34	X35	Y35	Z35	X36	Y36	Z36	X37	Y37	Z37	X38	Y38	Z38	X39	Y39	Z39	X40	Y40	Z40	X41	Y41	Z41	X42	Y42	Z42	X43	Y43	Z43	X44	Y44	Z44	X45	Y45	Z45	X46	Y46	Z46	X47	Y47	Z47

284	2.83	639.54	1402.6	-206.11	662.42	1142.3	-176.9	525.6	1321.5	-224.86	488.67	1173.9	-219.31	535.49	1381.2	-11.813	641.3	1344.9	-398.57	701.75	1307.8	-306.83	450.85	901.09	-124.15	494	905.4	-323.24	634.6	912.84	-154.68	651.15	913.91	-226.24	511.79	960.6	-62.628	581.15	961.91	-352.3	493.71	623.63	-81.777	498.41	668.66	-69.662	523.81	622.1	-65.01	507.63	543.49	-37.958	557.04	419.89	-116.04	NaN	NaN	NaN	467.41	626.86	-364.18	460.56	664.65	-371.91	516.1	643.85	-356.96	444	566.63	-397.71	362.85	471.03	-324.35	NaN	NaN	NaN	693.39	294.26	-81.381	638.78	306.23	-105.61	673.67	335.33	-82.099	680.98	204.66	-72.03	843.71	107.24	-97.498	838.07	113.89	-187.55	354.14	320.33	-338.54	338.31	367.4	-325.64	388.61	360.37	-337.86	326.12	252.42	-378.68	310.6	75.023	-315.49	300.73	97.196	-230.42	900.89	111.01	-139.09	851.39	85.203	-182.49	851.14	80.595	-103.85	739.28	45.212	-152.79	750.54	35.487	-105.01	358.41	59.453	-273.08	295.68	61.903	-233.4	298.45	52.337	-311.09	179.23	76.564	-283.01	198.15	55.515	-331.53
285	2.84	629.02	1401	-208.05	649.44	1140.5	-178.78	514.42	1321	-226.43	475.94	1173.7	-220.84	526.03	1380.8	-13.299	629.73	1343.4	-400.53	690.08	1305.6	-308.93	437.07	899.84	-125.38	479.53	904.76	-324.8	620.49	912.52	-156.4	636.76	913.72	-227.93	497.94	959.88	-63.828	567.03	960.88	-353.82	482.57	622.32	-82.228	486.9	667.44	-70.265	512.76	621.02	-65.594	497.32	542.59	-38.003	547.39	419.14	-115.76	NaN	NaN	NaN	455.28	624.96	-363.77	448.56	662.49	-372.13	503.83	642.39	-356.7	432.35	564.53	-396.8	352.24	468.46	-323.12	NaN	NaN	NaN	685.98	296.12	-81.243	631.02	306.81	-105.35	665.81	336.76	-82.182	675.57	206.66	-70.984	839.92	111.7	-97.314	833.85	118.09	-187.26	345.84	317.64	-337.21	329.25	364.52	-324.2	379.77	358.32	-336.46	318.63	249.35	-377.08	306.63	71.511	-313.72	297.38	93.21	-228.5	897.02	117.56	-138.89	848.18	89.756	-182.17	848.14	85.167	-103.59	737.97	45.259	-153.2	749.32	35.957	-105.07	355.31	57.146	-272.17	293.5	57.767	-231.57	295.45	48.554	-309.33	175.79	70.567	-279.11	194.48	49.748	-327.97
286	2.85	618.4	1399.4	-210.22	636.11	1138.7	-180.83	503	1320.6	-228.14	463	1173.7	-222.57	516.39	1380.5	-15.017	617.92	1341.7	-402.46	678.13	1303.5	-311.22	423.17	898.5	-126.47	464.81	903.75	-326.41	606.27	912.59	-158.08	623.45	913.93	-229.77	483.99	959.37	-64.957	552.32	959.68	-355.32	471.48	621.11	-82.129	475.51	666.32	-70.696	501.89	620.14	-65.894	487.34	541.97	-37.655	537.43	418.48	-115.16	NaN	NaN	NaN	443.21	622.9	-363.24	436.14	660.31	-371.26	491.46	640.66	-356.49	420.75	561.99	-396.13	341.83	465.73	-322.3	NaN	NaN	NaN	678.34	298.2	-80.749	622.95	307.59	-104.82	657.23	338.25	-82.242	669.84	208.76	-69.953	835.72	116.4	-97.112	829.14	122.46	-187.04	338.02	314.71	-335.69	320.5	361.15	-322.65	370.73	356.21	-335.82	311.48	245.92	-375.12	303.26	69.691	-312.88	295.51	90.02	-227.07	892.55	123.92	-138.87	844.46	94.77	-181.97	844.61	90.071	-103.36	736.45	45.449	-153.32	747.95	36.529	-105.18	353.77	57.212	-272.33	292.69	55.423	-230.39	293.5	46.033	-308.29	173.91	62.753	-275.45	192.37	42.665	-324.72
287	2.86	607.89	1398	-212.52	622.31	1137.1	-183.06	491.33	1320.4	-229.97	449.83	1173.9	-224.33	506.68	1380.2	-16.777	605.84	1340.3	-404.77	666.11	1301.4	-313.63	409.43	897.1	-127.67	450.29	902.72	-327.71	592.43	912.93	-159.69	609.36	914.68	-231.73	469.67	958.92	-65.984	537.14	958.52	-357.48	460.58	620.11	-82.318	464.33	665.43	-71.291	491.03	619.46	-66.198	477.29	541.52	-37.192	527.23	417.68	-114.38	NaN	NaN	NaN	431.1	620.9	-362.91	423.73	658.03	-371.54	479.17	639.43	-356.11	410.71	558.44	-394.41	329.92	464.39	-321.45	NaN	NaN	NaN	670.2	300.37	-80.558	614.53	308.53	-104.04	648.15	340.02	-82.057	663.86	211.08	-68.756	830.65	121.27	-97.267	823.72	127.16	-186.68	328.69	314.14	-333.61	309.74	359.82	-321.01	360.4	356.46	-334.11	303.24	244.65	-373.19	301.78	69.768	-312.4	294.55	89.416	-226.38	887.23	130.74	-139.04	839.66	99.713	-181.66	840.82	95.273	-103.18	734.77	45.587	-153.33	746.5	37.175	-105.19	352.8	57.966	-272.66	292.59	54.7	-229.73	292.46	45.743	-307.74	172.37	59.209	-272.24	190.43	40.192	-321.97
288	2.87	597.22	1397	-214.99	608.33	1136	-184.93	479.67	1321	-231.89	436.66	1174.7	-226.06	496.82	1380.2	-18.506	593.6	1339	-407.26	653.93	1299.7	-316.24	396.04	895.81	-128.79	436.14	901.88	-329.37	578.57	913.73	-161.24	595.97	916.12	-233.72	455.38	958.38	-67.175	521.88	957.95	-359.84	449.63	619.27	-82.644	453.36	664.59	-71.967	480.23	618.81	-66.614	467.38	540.99	-36.865	516.1	417.21	-113.59	NaN	NaN	NaN	418.56	620.46	-361.91	410.25	657.62	-371.33	466.14	639.95	-355.43	400.88	556.4	-391.98	315.5	466.26	-319.48	NaN	NaN	NaN	661.47	302.9	-80.431	605.37	309.56	-103.47	638.75	341.86	-81.841	657.19	213.65	-67.601	825.22	126.75	-97.143	817.18	132.17	-186.66	317.49	316.9	-333.39	297.83	361.91	-318.83	348.29	360.02	-333.76	293.1	247.42	-372.65	299.14	69.956	-312.07	293.16	89.46	-226	880.8	138.3	-139.46	834.24	105.41	-181.56	835.55	100.92	-103.43	732.93	45.609	-153.61	744.76	37.802	-105.34	350.91	59.126	-273.27	291.56	54.304	-229.25	290.13	45.753	-307.44	171.48	57.132	-270.36	188.64	38.245	-320.41
289	2.88	586.14	1396.7	-217.5	594.35	1135.3	-186.72	468.09	1322	-233.86	423.41	1175.9	-227.91	486.91	1380.5	-20.021	581.26	1338	-409.93	641.77	1298.3	-319	383.15	894.92	-129.86	422.09	901.78	-330.62	564.69	914.55	-162.59	582.23	917.7	-235.22	440.85	957.97	-68.311	507.34	957.57	-361.78	438.21	618.99	-82.95	442.03	664.28	-72.753	469.06	618.53	-67.239	456.78	541.1	-36.607	503.87	416.8	-112.76	NaN	NaN	NaN	404.56	622.78	-361.97	395.7	659.66	-370.24	452.86	642.76	-357	384.91	561.05	-393.09	301.38	468.75	-317.28	NaN	NaN	NaN	651.57	305.82	-80.655	595.06	311.11	-102.57	628.02	344.41	-81.523	649.5	216.97	-66.299	818.47	132.69	-97.634	809.34	137.64	-186.77	306.69	319.14	-332.29	286.72	363.84	-316.92	336.13	363.21	-334.56	281.8	249.64	-371.05	296.15	69.624	-311.92	290.61	89.17	-225.98	873.1	146.38	-140.19	827.27	111.45	-181.46	829.87	107.29	-103.64	731.51	45.239	-154.12	742.63	38.655	-105.75	348.69	60.419	-273.81	289.84	53.645	-229.12	288.12	45.308	-307.67	169.03	52.932	-269.27	186.69	35.023	-319.92
290	2.89	574.89	1396.7	-219.92	580.69	1135	-188.52	456.21	1323.2	-235.95	410.05	1177.4	-229.64	476.92	1381.1	-21.656	568.98	1337.3	-412.51	629.36	1297.3	-321.78	370.63	894.6	-130.75	408.55	902.26	-331.38	551.72	915.64	-163.55	568.59	918.99	-236.21	426.46	957.87	-69.457	493.47	957.74	-362.95	426.15	618.92	-83.176	430.12	664.21	-73.183	457.14	618.38	-67.877	444.76	541.42	-36.32	490	416.52	-111.85	NaN	NaN	NaN	389.62	625.84	-362.41	380.79	662.9	-369.3	438.13	645.03	-358.84	366.04	564.84	-394.47	288.86	469.87	-315.85	NaN	NaN	NaN	640.44	309.21	-80.619	583.43	312.91	-101.62	616.1	347.26	-81.667	640.76	221.03	-64.654	810.35	139.01	-98.448	800.32	143.26	-186.95	297.19	319.6	-331.16	276.6	363.91	-315.52	325.12	364.06	-334.54	273.21	250.08	-369.98	294.27	69.399	-311.69	288.55	88.674	-225.57	864.22	155.36	-141.78	819.09	118.01	-181.95	822.76	114.03	-104.39	728.87	45.36	-154.96	740.04	39.846	-106.25	346.9	61.115	-274.08	288.65	53.002	-228.85	286.71	44.639	-307.22	167.31	50.282	-268.97	185.51	33.224	-321.4
291	2.9	563.43	1396.5	-222.47	567.22	1135.2	-190.39	444.23	1324.4	-238.01	396.82	1179	-231.31	466.8	1381.8	-23.405	556.64	1336.9	-414.97	616.81	1296.5	-324.39	358.38	894.49	-131.68	394.41	903.38	-332.25	538.9	916.4	-164.5	555.27	920.2	-237.16	412.57	958.35	-70.623	479.76	958.58	-363.96	412.89	618.95	-83.38	417.44	664.21	-73.63	444.04	618.3	-68.148	431.27	541.82	-35.897	474.48	416.18	-110.88	NaN	NaN	NaN	374.37	628.61	-363.38	366.22	665.83	-368.79	423.5	646.97	-361.31	348.69	568.52	-395.47	278.07	469.2	-314.71	NaN	NaN	NaN	627.8	312.56	-80.588	570.31	314.62	-100.57	602.62	350.01	-82.093	630.66	224.94	-63.226	800.99	145.42	-99.072	789.31	148.52	-187.37	289.02	318.46	-330.56	267.84	362.41	-314.36	315.81	363.61	-334.2	266.17	247.83	-368.85	292.87	69.469	-311.36	287.56	88.175	-225.21	853.25	163.74	-143.19	809.54	124.47	-182.66	814.42	120.91	-105.06	726.55	44.671	-155.87	736.78	41.105	-107.03	345.77	61.984	-274.24	287.87	52.39	-228.47	285.31	44.728	-307.2	166.32	49.068	-269.07	184.76	32.317	-322.43
292	2.91	551.73	1396.5	-225.15	554.13	1135.4	-192.29	432.05	1325.6	-240.06	383.81	1180.3	-232.83	456.45	1382.7	-25.35	544.1	1336.5	-417.37	604.05	1295.8	-326.94	346.27	894.47	-132.47	380.7	904.22	-332.87	526.37	917.22	-165.65	542.15	921.45	-238.37	399.65	959.16	-71.912	465.87	960.19	-365.13	398.8	618.82	-83.483	404.14	664.1	-74.16	430.13	617.86	-68.286	415.96	541.59	-35.665	458.12	415.47	-109.81	NaN	NaN	NaN	359.83	630.62	-363.85	352.1	667.95	-368.61	409.85	648.17	-363.19	332.06	571.11	-396.08	268.08	468.09	-313.72	NaN	NaN	NaN	613.84	315.5	-80.643	555.81	316.01	-99.634	587.76	352.49	-82.131	618.81	228.09	-62.232	790.41	151.82	-99.612	776.92	153.39	-187.67	281.71	317.08	-329.59	259.79	360.63	-313.26	307.44	362.81	-333.57	260.12	245.88	-367.72	291.04	69.512	-310.67	286.42	87.521	-224.37	840.73	172.12	-144.27	798.12	130.28	-182.89	804.68	127.7	-105.55	723.33	45.074	-157.04	732.29	42.858	-107.89	344.57	62.663	-274.05	287.25	51.739	-227.86	284.36	44.683	-306.76	165.04	48.2	-268.09	184.26	31.947	-322.43
